<svg id="Layer_1" fill="#757575" data-name="Layer 1" xmlns="http://www.w3.org/2000/svg" viewBox="0 0 20 20.039" width="20" height="20.039"><title>stories</title><path d="M16.96 5.08c0.376 0.921 0.833 1.947 1.064 2.862a8.451 8.451 0 0 1 0.25 2.486 8.301 8.301 0 0 1 -0.49 2.447 8.133 8.133 0 0 1 -1.181 2.158A8.01 8.01 0 0 1 14.84 16.713h0a8.945 8.945 0 0 1 -0.773 0.49q-0.398 0.226 -0.815 0.407a8.48 8.48 0 0 1 -1.855 0.581 8.073 8.073 0 0 1 -1.904 0.133L9.295 18.31l-0.45 1.676 0.309 0.025A9.856 9.856 0 0 0 11.587 19.895a10.273 10.273 0 0 0 2.367 -0.721q0.479 -0.211 0.95 -0.478c0.306 -0.173 0.61 -0.367 0.916 -0.579A9.718 9.718 0 0 0 19.407 13.45 10.059 10.059 0 0 0 19.684 7.518c-0.327 -0.941 -0.682 -2.184 -1.355 -3.134 -0.446 -0.63 -1.75 -0.256 -1.362 0.696ZM9.133 7.296a0.87 0.87 0 1 1 1.74 0V9.15H12.72a0.87 0.87 0 0 1 0 1.742H10.87V12.744a0.87 0.87 0 1 1 -1.74 0V10.89H7.276a0.87 0.87 0 1 1 0 -1.742H9.133V7.296ZM3.954 17.998a9.769 9.769 0 0 0 1.87 1.141l0.275 0.13 0.45 -1.67L6.36 17.507a8.035 8.035 0 0 1 -1.367 -0.861 8.21 8.21 0 0 1 -1.182 -1.13l-0.139 -0.164 -1.495 0.864 0.193 0.233a9.991 9.991 0 0 0 1.586 1.547ZM0.093 11.339A9.702 9.702 0 0 0 0.651 13.482l0.107 0.281 1.495 -0.864 -0.071 -0.204a8.044 8.044 0 0 1 -0.39 -1.586 7.95 7.95 0 0 1 -0.061 -1.63l0.01 -0.21L0.067 8.83 0.039 9.133A9.593 9.593 0 0 0 0.093 11.339ZM1.367 5.055c-0.15 0.253 -0.286 0.507 -0.41 0.767l-0.131 0.278 1.67 0.45L2.59 6.36c0.094 -0.185 0.194 -0.364 0.298 -0.536s0.22 -0.349 0.344 -0.516a10.046 10.046 0 0 1 0.636 -0.804A8.789 8.789 0 0 1 4.567 3.787l0.151 -0.139 -0.867 -1.502 -0.235 0.204a10.83 10.83 0 0 0 -0.936 0.921 11.833 11.833 0 0 0 -0.84 1.046c-0.17 0.241 -0.327 0.49 -0.476 0.733ZM8.226 0.127A8.85 8.85 0 0 0 6.567 0.573l-0.284 0.107 0.865 1.496 0.199 -0.07a7.239 7.239 0 0 1 2.562 -0.396c0.198 0 0.405 0.018 0.618 0.044s0.41 0.053 0.61 0.094 0.415 0.09 0.62 0.151 0.409 0.13 0.618 0.211h0a0.854 0.854 0 1 0 0.618 -1.593C12.745 0.522 12.49 0.435 12.23 0.359s-0.51 -0.136 -0.758 -0.189S10.971 0.081 10.725 0.053 10.213 0.009 9.949 0A9.11 9.11 0 0 0 8.226 0.127Z"/></svg>